Coordinates
nRows=6
nColumns=38

# SIMM Motion File Header:
name Coordinates
datacolumns 38
datarows 6
otherdata 1
range 1.54400000000000000000 1.54899999999999990000

Units are S.I. units (second, meters, Newtons, ...)
Angles are in degrees.

endheader
time	pelvis_tilt	pelvis_list	pelvis_rotation	pelvis_tx	pelvis_ty	pelvis_tz	hip_flexion_r	hip_adduction_r	hip_rotation_r	knee_angle_r	ankle_angle_r	subtalar_angle_r	mtp_angle_r	hip_flexion_l	hip_adduction_l	hip_rotation_l	knee_angle_l	ankle_angle_l	subtalar_angle_l	mtp_angle_l	lumbar_extension	lumbar_bending	lumbar_rotation	arm_flex_r	arm_add_r	arm_rot_r	elbow_flex_r	pro_sup_r	wrist_flex_r	wrist_dev_r	arm_flex_l	arm_add_l	arm_rot_l	elbow_flex_l	pro_sup_l	wrist_flex_l	wrist_dev_l
      1.54400000000000000000	     -4.43673198450776420000	     -4.88240220797184680000	     -0.44003539274037035000	      0.93372682617157954000	      1.03422234898838330000	     -0.34897830718415912000	     30.07849115837300500000	      9.65632266356655930000	      0.45084243942932578000	    -11.65655121321829500000	     -8.63138389801472350000	      0.00000000000000000000	      0.00000000000000000000	    -14.27294392677512200000	      1.27099500838261000000	     -2.41799618350391170000	    -66.42676935287435900000	    -16.55207273763901200000	      0.00000000000000000000	      0.00000000000000000000	     -2.65579823582652800000	      8.76011007225151950000	    -12.43665678442861200000	    -43.55506503557873500000	     -8.40319448985435710000	    -17.26527150511944700000	    124.95130007897143000000	     95.62443810631319300000	      0.00000000000000000000	      0.00000000000000000000	    -15.16111875612338300000	    -14.12178347081453800000	      9.44773832450510120000	    139.22622255981230000000	     98.36474107189590700000	      0.00000000000000000000	      0.00000000000000000000
      1.54499999999999990000	     -4.43021972028396420000	     -4.92692094790517570000	     -0.43052671275538029000	      0.93360112373966631000	      1.03373318573788000000	     -0.34896620710674908000	     29.98008519559489200000	      9.71618545847837640000	      0.35875278839126667000	    -11.71850554358372200000	     -8.68686120157256880000	     -0.00000000000000000098	     -0.00000000000000000009	    -14.02786251262336100000	      1.19372713280061800000	     -2.44053210186729390000	    -67.12456134915213100000	    -16.26738360379878400000	     -0.00000000000000000067	      0.00000000000000000120	     -2.70034053903460470000	      8.82945185247129060000	    -12.41205995005640800000	    -43.39267116677588400000	     -8.42906792698342140000	    -17.26103217617628300000	    124.87496224882669000000	     95.48155475019623900000	      0.00000000000000000011	      0.00000000000000000047	    -15.30872802852325700000	    -14.21831059903147200000	      9.38813268411187000000	    139.05771450475152000000	     98.31329452060633400000	     -0.00000000000000000007	     -0.00000000000000000061
      1.54600000000000000000	     -4.42499742857345260000	     -4.97095348985833850000	     -0.42121397357789447000	      0.93347279991539722000	      1.03323369006843380000	     -0.34895306270680737000	     29.88469715128644200000	      9.77620801771407780000	      0.27349922505589780000	    -11.79265613062894700000	     -8.73401545524610870000	     -0.00000000000000000888	     -0.00000000000000000127	    -13.77906471258086900000	      1.11666302653564680000	     -2.46170794843807350000	    -67.82129064121758700000	    -15.97899663280937900000	     -0.00000000000000000006	      0.00000000000000000114	     -2.74355773586705840000	      8.89807550131132710000	    -12.38573569751129400000	    -43.22838774916695600000	     -8.45658915611815230000	    -17.25495819658961200000	    124.79593545366586000000	     95.33587892553057900000	      0.00000000000000000011	     -0.00000000000000000003	    -15.45642518947784100000	    -14.31505187359712600000	      9.32759332837957620000	    138.88655994175355000000	     98.26076103826754600000	     -0.00000000000000000069	     -0.00000000000000000218
      1.54699999999999990000	     -4.42101857490807150000	     -5.01451289138276040000	     -0.41213975194760744000	      0.93334195001590503000	      1.03272394315750970000	     -0.34893876194927970000	     29.79219721816204500000	      9.83645238297084210000	      0.19521901008056824000	    -11.87883040800082800000	     -8.77275784330161730000	     -0.00000000000000002069	     -0.00000000000000000316	    -13.52660924746080100000	      1.03975825736632690000	     -2.48167646557562270000	    -68.51688589939666900000	    -15.68716327568519600000	      0.00000000000000000212	     -0.00000000000000000063	     -2.78549505122253520000	      8.96599311950737570000	    -12.35760087560964300000	    -43.06224966134545400000	     -8.48571179208556360000	    -17.24708824180690700000	    124.71423169702688000000	     95.18762422193626100000	     -0.00000000000000000018	     -0.00000000000000000176	    -15.60414254547764700000	    -14.41199670603861600000	      9.26609095088058510000	    138.71281321700025000000	     98.20728590406930900000	     -0.00000000000000000301	     -0.00000000000000000444
      1.54800000000000000000	     -4.41822818724906160000	     -5.05760617349587700000	     -0.40334825295169141000	      0.93320869239212012000	      1.03220402269054420000	     -0.34892318095338737000	     29.70243481089853100000	      9.89698742877949120000	      0.12408273365626334000	    -11.97684581568781700000	     -8.80238997594122980000	     -0.00000000000000003386	     -0.00000000000000000506	    -13.27056826391805400000	      0.96296933441985899000	     -2.50060100564117920000	    -69.21126719510226600000	    -15.39219930747258000000	      0.00000000000000000428	     -0.00000000000000000165	     -2.82620386661224600000	      9.03320960284752590000	    -12.32756169088524500000	    -42.89429933683357600000	     -8.51637644858471350000	    -17.23746897385552400000	    124.62986989342497000000	     95.03706092071681200000	     -0.00000000000000000132	     -0.00000000000000000364	    -15.75181046320253300000	    -14.50913470642428900000	      9.20358294085321300000	    138.53654766469108000000	     98.15305067652070600000	     -0.00000000000000000529	     -0.00000000000000000660
      1.54899999999999990000	     -4.41657097851277220000	     -5.10024923335148910000	     -0.39484614159229664000	      0.93307313016066029000	      1.03167400586588350000	     -0.34890624884281263000	     29.61526581934316800000	      9.95787530517105070000	      0.06019311034104994600	    -12.08652552874953100000	     -8.82213213993284210000	     -0.00000000000000004529	     -0.00000000000000000597	    -13.01100310784127400000	      0.88623588259224140000	     -2.51860175409530960000	    -69.90437012420865400000	    -15.09442859269716800000	      0.00000000000000000530	     -0.00000000000000000248	     -2.86573231508722250000	      9.09974074493675290000	    -12.29556116444840300000	    -42.72457563008850200000	     -8.54852383994615830000	    -17.22614816700920000000	    124.54286806024972000000	     94.88447150376038100000	     -0.00000000000000000329	     -0.00000000000000000621	    -15.89936291424146700000	    -14.60645631683067200000	      9.14002446823014130000	    138.35783941381044000000	     98.09824773908231100000	     -0.00000000000000000624	     -0.00000000000000000889
